<?xml version="1.0" standalone="no"?>
<!DOCTYPE svg PUBLIC "-//W3C//DTD SVG 20010904//EN"
 "http://www.w3.org/TR/2001/REC-SVG-20010904/DTD/svg10.dtd">
<svg version="1.0" xmlns="http://www.w3.org/2000/svg"
 width="45px" height="45px" viewBox="0 0 64.000000 64.000000"
 preserveAspectRatio="xMidYMid meet">

<g transform="translate(0.000000,64.000000) scale(0.100000,-0.100000)"
fill="#5097A4" stroke="none">
<path d="M95 620 c-3 -5 -4 -14 -1 -18 3 -5 -8 -16 -25 -26 -35 -21 -69 -83
-69 -127 0 -42 27 -96 62 -122 32 -24 36 -53 10 -73 -16 -13 -16 -15 7 -34 30
-26 43 -25 70 3 18 20 19 26 8 35 -8 7 -17 9 -20 5 -4 -3 -7 7 -7 23 0 44 50
117 96 139 50 24 118 24 167 0 85 -40 123 -167 75 -250 -56 -96 -171 -122
-263 -59 -44 30 -72 19 -40 -16 18 -20 18 -20 -33 -20 -45 0 -52 -3 -52 -20 0
-19 7 -20 241 -20 219 0 243 -2 255 -18 12 -16 14 -15 38 7 31 30 31 31 5 65
-17 21 -24 24 -35 15 -8 -6 -11 -15 -8 -20 3 -5 -27 -9 -67 -9 l-73 0 26 27
c70 76 84 182 35 266 -39 67 -94 100 -171 105 -82 5 -146 -24 -189 -85 -17
-24 -36 -43 -43 -43 -22 0 -54 56 -54 95 0 68 45 122 76 90 20 -20 21 -20 40
17 16 31 16 32 -10 55 -30 25 -42 28 -51 13z"/>
</g>
</svg>
