<svg xmlns="http://www.w3.org/2000/svg" width="55" height="55" fill="#FC6A03" viewBox="0 0 30 30"><path d="M21 4H9a5 5 0 0 0-5 5v12a5 5 0 0 0 5 5h12a5 5 0 0 0 5-5V9a5 5 0 0 0-5-5zm1.665 18.026s-.738-1.445-2.208-1.445C19.04 20.581 17.853 22 15 22c-5.612 0-8.825-5.312-8.825-5.312s5.627 3.91 9.392 1.046C11.7 15.005 7.739 9.293 7.739 9.293s3.434 3.026 6.766 5.1c-1.479-1.513-4.658-5.882-4.658-5.882s4.641 4.607 8.075 6.545c1.496-3.927-1.411-7.854-1.411-7.854 6.936 4.658 4.93 10.353 4.93 10.353s1.904 2.04 1.224 4.471z"/></svg>