<svg xmlns="http://www.w3.org/2000/svg" width="48" height="48" fill="#6693F5" version="1.0"><path d="M18.2 7.3c-3 3.2-2.8 5.2.9 7.7l3 2.2.6-2.1c.6-2.5 1.4-2.6 5.3-.6 5.4 2.8 7.5 9.8 4.5 15.5-2.4 4.5-5 5.5-17.5 6-9.3.4-11.5.8-11.5 2 0 1.3 2.8 1.6 17 2 13.8.4 17 .8 17 1.9 0 2.6 2 2.2 5-.9l2.9-3-3.1-3.1c-3-3.1-6-3.2-4.9-.3.4 1-.2 1.4-2 1.4h-2.5l2-2.6c2.5-3.2 3.5-8.2 2.6-12.4-1-4.5-6-9.8-10.6-11.1C24.2 9 23 8.1 23 6.8c0-2.5-2.2-2.3-4.8.5z"/><path d="M9.4 16.5c-4 6.1-2.1 17.5 3 17.5H15l-2-3.2c-2.4-4-2.5-7.9-.5-11.9 2.5-4.8-.1-6.9-3.1-2.4z"/></svg>