<?xml version="1.0" standalone="no"?>
<!DOCTYPE svg PUBLIC "-//W3C//DTD SVG 20010904//EN"
 "http://www.w3.org/TR/2001/REC-SVG-20010904/DTD/svg10.dtd">
<svg version="1.0" xmlns="http://www.w3.org/2000/svg"
 width="48px" height="48px" viewBox="0 0 512.000000 512.000000"
 preserveAspectRatio="xMidYMid meet">

<g transform="translate(0.000000,512.000000) scale(0.100000,-0.100000)">
<path fill="#4682B4" d="M2450 5104 c-110 -30 -209 -113 -262 -222 -26 -52 -33 -80 -36 -147
-11 -209 108 -371 316 -431 8 -2 12 -29 12 -89 l0 -85 -85 0 -85 0 0 -73 c0
-64 -3 -76 -23 -95 -41 -38 -84 -30 -142 28 l-50 50 -174 -174 -174 -174 46
-52 c26 -29 48 -60 48 -69 4 -50 -15 -85 -54 -97 -15 -5 -44 18 -138 112
l-118 118 19 31 c83 135 120 369 86 547 -63 328 -331 598 -650 657 -96 18
-260 14 -353 -9 -430 -103 -704 -532 -615 -962 33 -159 82 -248 293 -528 l184
-245 5 -160 c5 -148 8 -164 32 -211 57 -109 171 -178 293 -178 95 0 160 27
231 98 82 82 96 126 103 316 l6 145 132 178 c73 97 136 177 141 177 4 0 53
-46 110 -103 l102 -102 0 -193 0 -192 73 0 c65 0 76 -3 97 -25 38 -40 31 -78
-23 -133 -26 -26 -47 -52 -47 -57 0 -6 76 -86 170 -180 l169 -169 24 22 c13
12 26 22 30 22 4 0 7 -40 7 -90 0 -49 -1 -90 -2 -90 -2 0 -27 9 -56 20 -108
41 -196 20 -249 -59 -21 -31 -23 -45 -23 -165 l0 -131 -245 -245 -244 -244
-37 42 c-82 97 -234 187 -371 222 -103 27 -253 27 -359 0 -345 -86 -582 -409
-561 -760 19 -306 220 -567 512 -666 116 -39 277 -45 395 -15 315 79 532 323
570 640 14 108 1 220 -37 324 l-25 70 193 193 c107 107 197 194 200 194 4 0 9
-80 12 -177 3 -143 9 -193 26 -253 31 -107 91 -225 156 -309 l56 -73 -41 -411
c-22 -227 -42 -424 -45 -439 l-4 -28 589 0 590 0 -5 28 c-3 15 -23 212 -45
438 l-41 411 56 74 c66 87 125 205 156 309 17 60 23 110 26 253 3 97 8 177 12
177 3 0 43 -37 87 -82 78 -81 82 -85 102 -166 35 -132 84 -217 278 -476 l181
-243 5 -149 c4 -137 7 -154 32 -211 31 -69 87 -127 158 -165 37 -20 58 -23
143 -23 92 0 104 2 153 29 60 34 111 85 144 148 20 38 23 60 26 201 l4 158
184 247 c266 354 308 451 308 697 0 105 -4 145 -22 209 -68 238 -220 421 -437
526 -136 66 -220 85 -370 83 -226 -1 -411 -79 -571 -238 -111 -110 -206 -286
-229 -422 -4 -24 -10 -43 -14 -43 -3 0 -43 37 -89 83 l-82 82 0 95 c0 114 -16
156 -83 217 -54 50 -109 67 -192 60 l-60 -6 -28 50 c-16 28 -46 63 -72 81 -48
34 -47 50 2 69 32 12 64 -3 119 -53 l45 -42 170 170 c93 93 169 173 169 179 0
5 -21 31 -47 57 -54 55 -61 93 -23 133 21 22 32 25 97 25 l73 0 0 193 0 192
160 160 159 159 37 -42 c84 -98 235 -188 376 -224 115 -29 288 -22 403 15 320
105 532 415 512 747 -19 306 -220 568 -512 666 -108 36 -268 44 -381 19 -255
-55 -461 -237 -548 -483 -55 -154 -55 -332 1 -485 l25 -70 -173 -173 c-96 -96
-179 -174 -186 -174 -19 0 -62 43 -64 65 -3 42 2 54 48 105 l46 52 -174 174
-174 174 -50 -50 c-42 -41 -57 -50 -86 -50 -58 0 -79 31 -79 118 l0 72 -85 0
-86 0 3 86 3 87 42 12 c85 25 174 96 226 181 68 110 76 271 19 386 -90 183
-287 274 -482 222z m216 -175 c92 -44 154 -157 139 -252 -10 -60 -54 -136 -97
-167 -147 -107 -353 -26 -389 152 -21 106 35 218 134 267 57 28 155 29 213 0z
m-1708 -155 c42 -8 115 -34 162 -56 68 -33 100 -57 170 -127 134 -135 193
-275 192 -461 0 -196 -37 -276 -273 -591 l-179 -239 -204 0 -204 0 -178 238
c-235 314 -274 398 -274 592 0 115 17 188 70 296 129 264 425 408 718 348z
m3602 -100 c235 -78 390 -294 390 -546 0 -158 -58 -296 -170 -408 -173 -173
-433 -217 -653 -110 -156 76 -265 209 -307 376 -49 190 -2 381 129 525 159
177 385 237 611 163z m-1901 -746 c43 -123 204 -193 323 -140 l46 20 58 -59
58 -59 -18 -51 c-46 -128 20 -277 142 -320 l32 -11 0 -88 c0 -83 -1 -88 -23
-94 -41 -10 -105 -64 -132 -111 -36 -61 -44 -148 -20 -211 l18 -46 -61 -61
-60 -60 -41 17 c-62 24 -137 21 -197 -9 -61 -30 -89 -58 -120 -122 l-23 -48
-1 168 c0 151 2 168 18 173 72 25 149 70 192 114 140 139 160 364 49 527 -38
55 -101 108 -169 140 -80 39 -216 45 -303 13 -117 -43 -188 -108 -241 -219
-41 -89 -48 -207 -17 -298 21 -61 21 -62 1 -105 -16 -36 -20 -66 -20 -186 l0
-142 -26 -12 c-23 -11 -29 -8 -86 49 l-61 61 18 46 c24 63 16 150 -20 211 -27
47 -91 101 -132 111 -22 6 -23 11 -23 94 l0 88 32 11 c122 43 188 192 142 320
l-18 51 58 59 58 59 46 -20 c119 -53 280 17 323 140 l11 32 88 0 88 0 11 -32z
m7 -486 c90 -46 139 -124 138 -222 -1 -99 -57 -187 -143 -223 l-35 -15 -27 44
c-47 73 -141 119 -232 112 l-42 -3 -9 50 c-20 118 58 235 182 276 40 13 124 3
168 -19z m-1676 -403 c0 -73 -5 -111 -16 -136 -58 -120 -231 -123 -291 -3 -19
37 -23 60 -23 142 l0 98 165 0 165 0 0 -101z m1452 -83 c10 -7 22 -25 28 -40
6 -18 10 -216 10 -562 l0 -534 79 0 80 0 3 219 c3 217 3 220 27 245 27 28 74
34 102 13 35 -27 39 -53 39 -266 l0 -211 79 0 79 0 4 140 c3 129 5 141 25 162
30 30 86 30 116 0 22 -22 22 -28 25 -325 2 -181 -1 -335 -8 -385 -18 -138 -68
-258 -153 -370 l-39 -52 -378 0 -378 0 -39 52 c-84 110 -134 230 -152 362 -12
87 -15 732 -3 739 15 10 88 -23 114 -52 35 -40 48 -88 48 -188 l0 -83 80 0 80
0 0 541 c0 554 1 567 39 596 21 16 72 16 93 -1z m2012 -666 c123 -31 209 -81
306 -179 134 -135 190 -269 190 -461 0 -192 -36 -271 -268 -582 l-177 -237
-210 -1 -211 0 -174 233 c-96 129 -189 263 -206 298 -45 88 -67 184 -67 293
-1 426 405 742 817 636z m-3593 -734 c162 -35 312 -148 393 -296 36 -66 66
-189 66 -269 -1 -249 -169 -475 -410 -552 -100 -32 -241 -30 -343 5 -153 52
-268 150 -336 287 -51 101 -65 169 -59 294 6 118 35 204 104 302 131 185 363
276 585 229z m2063 -1023 c15 -159 30 -305 33 -325 l6 -38 -403 0 -403 0 6 43
c3 23 18 169 33 325 l28 282 336 0 336 0 28 -287z m1536 29 c0 -123 -22 -173
-90 -209 -54 -29 -94 -29 -150 0 -68 34 -90 85 -90 209 l0 98 165 0 165 0 0
-98z"/>
<path fill="#FD5DA8" d="M2480 4705 l0 -85 80 0 80 0 0 85 0 85 -80 0 -80 0 0 -85z"/>
<path fill="#FD5DA8"  d="M755 4620 c-140 -21 -255 -145 -255 -277 l0 -53 79 0 78 0 6 42 c11
79 72 128 162 128 121 0 199 -104 150 -200 -8 -16 -69 -70 -135 -120 -148
-112 -171 -146 -178 -261 l-5 -79 87 0 86 0 0 58 c0 67 1 68 135 169 44 34 94
76 112 94 68 72 94 189 65 290 -44 148 -206 236 -387 209z"/>
<path fill="#FD5DA8"  d="M660 3550 l0 -80 85 0 85 0 0 80 0 80 -85 0 -85 0 0 -80z"/>
<path fill="#FD5DA8"  d="M3960 4130 l0 -80 85 0 85 0 0 80 0 80 -85 0 -85 0 0 -80z"/>
<path fill="#FD5DA8" d="M4290 4130 l0 -80 85 0 85 0 0 80 0 80 -85 0 -85 0 0 -80z"/>
<path fill="#FD5DA8"  d="M4620 4130 l0 -80 85 0 85 0 0 80 0 80 -85 0 -85 0 0 -80z"/>
<path fill="#FD5DA8"  d="M4190 2137 c-124 -35 -208 -134 -225 -264 l-7 -53 86 0 86 0 0 28 c0
41 32 93 71 114 52 29 168 22 204 -12 56 -52 69 -110 38 -167 -10 -17 -61 -64
-113 -104 -132 -100 -149 -117 -176 -174 -18 -37 -24 -67 -24 -117 l0 -68 80
0 80 0 0 39 c0 74 15 96 128 180 59 43 117 89 129 102 73 81 95 223 51 321
-56 121 -142 178 -280 184 -50 2 -101 -1 -128 -9z"/>
<path fill="#FD5DA8"  d="M4130 1075 l0 -85 80 0 80 0 0 85 0 85 -80 0 -80 0 0 -85z"/>
<path fill="#FD5DA8"  d="M330 990 l0 -80 85 0 85 0 0 80 0 80 -85 0 -85 0 0 -80z"/>
<path fill="#FD5DA8"  d="M660 990 l0 -80 85 0 85 0 0 80 0 80 -85 0 -85 0 0 -80z"/>
<path fill="#FD5DA8"  d="M990 990 l0 -80 85 0 85 0 0 80 0 80 -85 0 -85 0 0 -80z"/>
</g>
</svg>
