<svg xmlns="http://www.w3.org/2000/svg" viewBox="0 0 50 50" width="48" height="48" fill="#AF69EE"><path d="M19.51 4.314C9.589 5.984 2 14.612 2 25s7.589 19.016 17.51 20.686C11.056 42.616 5 34.502 5 25S11.056 7.384 19.51 4.314zM27 5C17.684 5 9.88 11.379 7.656 20h38.69C44.122 11.379 36.316 5 27 5zM7.248 22a20.242 20.242 0 0 0-.197 2h39.898a19.944 19.944 0 0 0-.197-2H7.248zm-.197 4c.034.676.098 1.343.197 2h39.504c.099-.657.163-1.324.197-2H7.051zm.605 4C9.88 38.621 17.684 45 27 45s17.12-6.379 19.344-15H7.656z"/></svg>