<svg xmlns="http://www.w3.org/2000/svg" width="48" height="48"><linearGradient id="a" x1="17.151" x2="29.996" y1="8.498" y2="37.571" gradientUnits="userSpaceOnUse"><stop offset="0" stop-color="#f09701"/><stop offset="1" stop-color="#e36001"/></linearGradient><path fill="url(#a)" d="M8.108 18.006C10.534 11.579 16.724 7 24 7s13.466 4.579 15.892 11.006C36.653 14.6 30.757 12.313 24 12.313S11.347 14.6 8.108 18.006zM24 35.688c-6.757 0-12.653-2.287-15.892-5.693C10.534 36.421 16.724 41 24 41s13.466-4.579 15.892-11.006C36.653 33.4 30.757 35.688 24 35.688z"/><linearGradient id="b" x1="1.319" x2="25.671" y1="44.651" y2="1.059" gradientUnits="userSpaceOnUse"><stop offset="0" stop-color="#a1aab3"/><stop offset="1" stop-color="#8f979e"/></linearGradient><path fill="url(#b)" d="M39.512 4.744a2.744 2.744 0 1 1-5.488 0 2.744 2.744 0 0 1 5.488 0zM10.976 40.415a3.293 3.293 0 1 0 0 6.586 3.293 3.293 0 0 0 0-6.586zM7.683 6.39a2.195 2.195 0 1 0 0 4.39 2.195 2.195 0 0 0 0-4.39z"/></svg>