<svg version="1.0" xmlns="http://www.w3.org/2000/svg" width="48" height="48" viewBox="0 0 512 512"><path fill="#4682B4" d="M245 1.6c-11 3-20.9 11.3-26.2 22.2-2.6 5.2-3.3 8-3.6 14.7-1.1 20.9 10.8 37.1 31.6 43.1.8.2 1.2 2.9 1.2 8.9V99h-17v7.3c0 6.4-.3 7.6-2.3 9.5-4.1 3.8-8.4 3-14.2-2.8l-5-5-17.4 17.4-17.4 17.4 4.6 5.2c2.6 2.9 4.8 6 4.8 6.9.4 5-1.5 8.5-5.4 9.7-1.5.5-4.4-1.8-13.8-11.2l-11.8-11.8 1.9-3.1c8.3-13.5 12-36.9 8.6-54.7-6.3-32.8-33.1-59.8-65-65.7-9.6-1.8-26-1.4-35.3.9-43 10.3-70.4 53.2-61.5 96.2C5.1 131.1 10 140 31.1 168l18.4 24.5.5 16c.5 14.8.8 16.4 3.2 21.1 5.7 10.9 17.1 17.8 29.3 17.8 9.5 0 16-2.7 23.1-9.8 8.2-8.2 9.6-12.6 10.3-31.6l.6-14.5 13.2-17.8c7.3-9.7 13.6-17.7 14.1-17.7.4 0 5.3 4.6 11 10.3l10.2 10.2V215h7.3c6.5 0 7.6.3 9.7 2.5 3.8 4 3.1 7.8-2.3 13.3-2.6 2.6-4.7 5.2-4.7 5.7 0 .6 7.6 8.6 17 18l16.9 16.9 2.4-2.2c1.3-1.2 2.6-2.2 3-2.2.4 0 .7 4 .7 9 0 4.9-.1 9-.2 9-.2 0-2.7-.9-5.6-2-10.8-4.1-19.6-2-24.9 5.9-2.1 3.1-2.3 4.5-2.3 16.5v13.1L157.5 343l-24.4 24.4-3.7-4.2c-8.2-9.7-23.4-18.7-37.1-22.2-10.3-2.7-25.3-2.7-35.9 0-34.5 8.6-58.2 40.9-56.1 76 1.9 30.6 22 56.7 51.2 66.6 11.6 3.9 27.7 4.5 39.5 1.5 31.5-7.9 53.2-32.3 57-64 1.4-10.8.1-22-3.7-32.4l-2.5-7 19.3-19.3c10.7-10.7 19.7-19.4 20-19.4.4 0 .9 8 1.2 17.7.3 14.3.9 19.3 2.6 25.3 3.1 10.7 9.1 22.5 15.6 30.9l5.6 7.3-4.1 41.1c-2.2 22.7-4.2 42.4-4.5 43.9l-.4 2.8H315l-.5-2.8c-.3-1.5-2.3-21.2-4.5-43.8l-4.1-41.1 5.6-7.4c6.6-8.7 12.5-20.5 15.6-30.9 1.7-6 2.3-11 2.6-25.3.3-9.7.8-17.7 1.2-17.7.3 0 4.3 3.7 8.7 8.2 7.8 8.1 8.2 8.5 10.2 16.6 3.5 13.2 8.4 21.7 27.8 47.6l18.1 24.3.5 14.9c.4 13.7.7 15.4 3.2 21.1 3.1 6.9 8.7 12.7 15.8 16.5 3.7 2 5.8 2.3 14.3 2.3 9.2 0 10.4-.2 15.3-2.9 6-3.4 11.1-8.5 14.4-14.8 2-3.8 2.3-6 2.6-20.1l.4-15.8 18.4-24.7c26.6-35.4 30.8-45.1 30.8-69.7 0-10.5-.4-14.5-2.2-20.9-6.8-23.8-22-42.1-43.7-52.6-13.6-6.6-22-8.5-37-8.3-22.6.1-41.1 7.9-57.1 23.8-11.1 11-20.6 28.6-22.9 42.2-.4 2.4-1 4.3-1.4 4.3-.3 0-4.3-3.7-8.9-8.3l-8.2-8.2V309c0-11.4-1.6-15.6-8.3-21.7-5.4-5-10.9-6.7-19.2-6l-6 .6-2.8-5c-1.6-2.8-4.6-6.3-7.2-8.1-4.8-3.4-4.7-5 .2-6.9 3.2-1.2 6.4.3 11.9 5.3l4.5 4.2 17-17c9.3-9.3 16.9-17.3 16.9-17.9 0-.5-2.1-3.1-4.7-5.7-5.4-5.5-6.1-9.3-2.3-13.3 2.1-2.2 3.2-2.5 9.7-2.5h7.3v-38.5l16-16 15.9-15.9 3.7 4.2c8.4 9.8 23.5 18.8 37.6 22.4 11.5 2.9 28.8 2.2 40.3-1.5 32-10.5 53.2-41.5 51.2-74.7-1.9-30.6-22-56.8-51.2-66.6-10.8-3.6-26.8-4.4-38.1-1.9-25.5 5.5-46.1 23.7-54.8 48.3-5.5 15.4-5.5 33.2.1 48.5l2.5 7-17.3 17.3c-9.6 9.6-17.9 17.4-18.6 17.4-1.9 0-6.2-4.3-6.4-6.5-.3-4.2.2-5.4 4.8-10.5l4.6-5.2-17.4-17.4-17.4-17.4-5 5c-4.2 4.1-5.7 5-8.6 5-5.8 0-7.9-3.1-7.9-11.8V99h-17.1l.3-8.6.3-8.7 4.2-1.2c8.5-2.5 17.4-9.6 22.6-18.1 6.8-11 7.6-27.1 1.9-38.6-9-18.3-28.7-27.4-48.2-22.2zm21.6 17.5c9.2 4.4 15.4 15.7 13.9 25.2-1 6-5.4 13.6-9.7 16.7-14.7 10.7-35.3 2.6-38.9-15.2-2.1-10.6 3.5-21.8 13.4-26.7 5.7-2.8 15.5-2.9 21.3 0zM95.8 34.6c4.2.8 11.5 3.4 16.2 5.6 6.8 3.3 10 5.7 17 12.7 13.4 13.5 19.3 27.5 19.2 46.1 0 19.6-3.7 27.6-27.3 59.1L103 182H62.2l-17.8-23.8C20.9 126.8 17 118.4 17 99c0-11.5 1.7-18.8 7-29.6C36.9 43 66.5 28.6 95.8 34.6zm360.2 10c23.5 7.8 39 29.4 39 54.6 0 15.8-5.8 29.6-17 40.8-17.3 17.3-43.3 21.7-65.3 11-15.6-7.6-26.5-20.9-30.7-37.6-4.9-19-.2-38.1 12.9-52.5 15.9-17.7 38.5-23.7 61.1-16.3zm-190.1 74.6c4.3 12.3 20.4 19.3 32.3 14l4.6-2 5.8 5.9 5.8 5.9-1.8 5.1c-4.6 12.8 2 27.7 14.2 32l3.2 1.1v8.8c0 8.3-.1 8.8-2.3 9.4-4.1 1-10.5 6.4-13.2 11.1-3.6 6.1-4.4 14.8-2 21.1l1.8 4.6-6.1 6.1-6 6-4.1-1.7c-6.2-2.4-13.7-2.1-19.7.9-6.1 3-8.9 5.8-12 12.2l-2.3 4.8-.1-16.8c0-15.1.2-16.8 1.8-17.3 7.2-2.5 14.9-7 19.2-11.4 14-13.9 16-36.4 4.9-52.7-3.8-5.5-10.1-10.8-16.9-14-8-3.9-21.6-4.5-30.3-1.3-11.7 4.3-18.8 10.8-24.1 21.9-4.1 8.9-4.8 20.7-1.7 29.8 2.1 6.1 2.1 6.2.1 10.5-1.6 3.6-2 6.6-2 18.6V246l-2.6 1.2c-2.3 1.1-2.9.8-8.6-4.9l-6.1-6.1 1.8-4.6c2.4-6.3 1.6-15-2-21.1-2.7-4.7-9.1-10.1-13.2-11.1-2.2-.6-2.3-1.1-2.3-9.4v-8.8l3.2-1.1c12.2-4.3 18.8-19.2 14.2-32l-1.8-5.1 5.8-5.9 5.8-5.9 4.6 2c11.9 5.3 28-1.7 32.3-14l1.1-3.2h17.6l1.1 3.2zm.7 48.6c9 4.6 13.9 12.4 13.8 22.2-.1 9.9-5.7 18.7-14.3 22.3l-3.5 1.5-2.7-4.4c-4.7-7.3-14.1-11.9-23.2-11.2l-4.2.3-.9-5c-2-11.8 5.8-23.5 18.2-27.6 4-1.3 12.4-.3 16.8 1.9zM99 208.1c0 7.3-.5 11.1-1.6 13.6-5.8 12-23.1 12.3-29.1.3-1.9-3.7-2.3-6-2.3-14.2V198h33v10.1zm145.2 8.3c1 .7 2.2 2.5 2.8 4 .6 1.8 1 21.6 1 56.2V330h15.9l.3-21.9c.3-21.7.3-22 2.7-24.5 2.7-2.8 7.4-3.4 10.2-1.3 3.5 2.7 3.9 5.3 3.9 26.6V330h15.8l.4-14c.3-12.9.5-14.1 2.5-16.2 3-3 8.6-3 11.6 0 2.2 2.2 2.2 2.8 2.5 32.5.2 18.1-.1 33.5-.8 38.5-1.8 13.8-6.8 25.8-15.3 37l-3.9 5.2h-75.6l-3.9-5.2c-8.4-11-13.4-23-15.2-36.2-1.2-8.7-1.5-73.2-.3-73.9 1.5-1 8.8 2.3 11.4 5.2 3.5 4 4.8 8.8 4.8 18.8v8.3h16v-54.1c0-55.4.1-56.7 3.9-59.6 2.1-1.6 7.2-1.6 9.3.1zM445.4 283c12.3 3.1 20.9 8.1 30.6 17.9 13.4 13.5 19 26.9 19 46.1 0 19.2-3.6 27.1-26.8 58.2l-17.7 23.7-21 .1h-21.1L391 405.7c-9.6-12.9-18.9-26.3-20.6-29.8-4.5-8.8-6.7-18.4-6.7-29.3-.1-42.6 40.5-74.2 81.7-63.6zM86.1 356.4c16.2 3.5 31.2 14.8 39.3 29.6 3.6 6.6 6.6 18.9 6.6 26.9-.1 24.9-16.9 47.5-41 55.2-10 3.2-24.1 3-34.3-.5-15.3-5.2-26.8-15-33.6-28.7-5.1-10.1-6.5-16.9-5.9-29.4.6-11.8 3.5-20.4 10.4-30.2 13.1-18.5 36.3-27.6 58.5-22.9zm206.3 102.3c1.5 15.9 3 30.5 3.3 32.5l.6 3.8h-80.6l.6-4.3c.3-2.3 1.8-16.9 3.3-32.5l2.8-28.2h67.2l2.8 28.7zm153.6-2.9c0 12.3-2.2 17.3-9 20.9-5.4 2.9-9.4 2.9-15 0-6.8-3.4-9-8.5-9-20.9V446h33v9.8z"/><path fill="#FD5DA8" d="M248 41.5V50h16V33h-16v8.5zM75.5 50C61.5 52.1 50 64.5 50 77.7V83h15.7l.6-4.2C67.4 70.9 73.5 66 82.5 66c12.1 0 19.9 10.4 15 20-.8 1.6-6.9 7-13.5 12-14.8 11.2-17.1 14.6-17.8 26.1l-.5 7.9H83v-5.8c0-6.7.1-6.8 13.5-16.9 4.4-3.4 9.4-7.6 11.2-9.4 6.8-7.2 9.4-18.9 6.5-29-4.4-14.8-20.6-23.6-38.7-20.9zM66 157v8h17v-16H66v8zM396 99v8h17V91h-17v8zM429 99v8h17V91h-17v8zM462 99v8h17V91h-17v8zM419 298.3c-12.4 3.5-20.8 13.4-22.5 26.4l-.7 5.3H413v-2.8c0-4.1 3.2-9.3 7.1-11.4 5.2-2.9 16.8-2.2 20.4 1.2 5.6 5.2 6.9 11 3.8 16.7-1 1.7-6.1 6.4-11.3 10.4-13.2 10-14.9 11.7-17.6 17.4-1.8 3.7-2.4 6.7-2.4 11.7v6.8h16v-3.9c0-7.4 1.5-9.6 12.8-18 5.9-4.3 11.7-8.9 12.9-10.2 7.3-8.1 9.5-22.3 5.1-32.1-5.6-12.1-14.2-17.8-28-18.4-5-.2-10.1.1-12.8.9zM413 404.5v8.5h16v-17h-16v8.5zM33 413v8h17v-16H33v8zM66 413v8h17v-16H66v8zM99 413v8h17v-16H99v8z"/></svg>