<svg xmlns="http://www.w3.org/2000/svg" width="45" height="45" version="1.0" viewBox="0 0 64 64"><path fill="#5097A4" d="M9.5 2c-.3.5-.4 1.4-.1 1.8.3.5-.8 1.6-2.5 2.6C3.4 8.5 0 14.7 0 19.1c0 4.2 2.7 9.6 6.2 12.2 3.2 2.4 3.6 5.3 1 7.3-1.6 1.3-1.6 1.5.7 3.4 3 2.6 4.3 2.5 7-.3 1.8-2 1.9-2.6.8-3.5-.8-.7-1.7-.9-2-.5-.4.3-.7-.7-.7-2.3 0-4.4 5-11.7 9.6-13.9 5-2.4 11.8-2.4 16.7 0 8.5 4 12.3 16.7 7.5 25-5.6 9.6-17.1 12.2-26.3 5.9-4.4-3-7.2-1.9-4 1.6 1.8 2 1.8 2-3.3 2-4.5 0-5.2.3-5.2 2 0 1.9.7 2 24.1 2 21.9 0 24.3.2 25.5 1.8 1.2 1.6 1.4 1.5 3.8-.7 3.1-3 3.1-3.1.5-6.5-1.7-2.1-2.4-2.4-3.5-1.5-.8.6-1.1 1.5-.8 2 .3.5-2.7.9-6.7.9h-7.3l2.6-2.7c7-7.6 8.4-18.2 3.5-26.6-3.9-6.7-9.4-10-17.1-10.5-8.2-.5-14.6 2.4-18.9 8.5C12 27.1 10.1 29 9.4 29 7.2 29 4 23.4 4 19.5c0-6.8 4.5-12.2 7.6-9 2 2 2.1 2 4-1.7 1.6-3.1 1.6-3.2-1-5.5C11.6.8 10.4.5 9.5 2z"/></svg>