<svg xmlns="http://www.w3.org/2000/svg" height="43" width="43" viewBox="0 0 512 512" xml:space="preserve"><path style="fill:#ffcf70" d="M164.804 33.906h335.971v401.549H164.804z"/><path style="fill:#ecf0f1" d="M259.82 78.799h196.061V390.55H259.82z"/><path style="fill:#0bbbda" d="M279.293 20.435H436.42v58.361H279.293z"/><path style="fill:#0bbbda" d="M11.223 20.213h308.642V76.33H11.223zM11.223 435.668h308.642v56.117H11.223z"/><path style="fill:#ffbaa8" d="M190.571 256c.056.067.123.135.191.202l-25.219 35.241-25.219-35.241c.067-.067.135-.135.191-.202-30.011-32.536-68.687-73.12-91.953-110.202 25.286 2.492 27.093 22.189 55.769 22.189 30.606 0 30.606-22.447 61.201-22.447 30.617 0 30.617 22.447 61.223 22.447 28.676 0 30.483-19.708 55.78-22.2-23.254 37.093-61.941 77.677-91.964 110.213z"/><path style="fill:#ecf0f1" d="M190.762 256.202c51.291 55.578 127.654 134.557 109.461 179.461H30.863C12.67 390.759 89.045 311.78 140.324 256.202l25.219 35.241 25.219-35.241zM48.562 145.798C32.064 119.513 23.31 94.99 30.863 76.337h269.36c7.553 18.653-1.19 43.176-17.688 69.45-25.297 2.492-27.104 22.2-55.78 22.2-30.606 0-30.606-22.447-61.223-22.447-30.595 0-30.595 22.447-61.201 22.447-28.676 0-30.483-19.697-55.769-22.189z"/><path style="fill:#ffbaa8" d="m95.96 435.666 69.584-84.175 69.585 84.175z"/><path style="fill:#231f20" d="M327.726 152.63h59.906c5.625 0 10.653-3.99 11.453-9.558.998-6.937-4.358-12.889-11.103-12.889h-59.906c-5.625 0-10.653 3.99-11.453 9.558-.998 6.937 4.358 12.889 11.103 12.889zM303.783 197.523h11.434c5.625 0 10.653-3.99 11.453-9.558.998-6.937-4.358-12.889-11.103-12.889h-11.434c-5.625 0-10.653 3.99-11.453 9.558-.998 6.937 4.358 12.889 11.103 12.889zM365.194 175.076h-14.328c-5.625 0-10.653 3.99-11.453 9.558-.998 6.937 4.358 12.889 11.103 12.889h14.328c5.625 0 10.653-3.99 11.453-9.558.998-6.938-4.358-12.889-11.103-12.889zM411.925 175.076H400.49c-5.625 0-10.653 3.99-11.453 9.558-.998 6.937 4.358 12.889 11.103 12.889h11.434c5.625 0 10.653-3.99 11.453-9.558 1-6.938-4.356-12.889-11.102-12.889zM303.783 242.416h11.434c5.625 0 10.653-3.99 11.453-9.558.998-6.937-4.358-12.889-11.103-12.889h-11.434c-5.625 0-10.653 3.99-11.453 9.558-.998 6.938 4.358 12.889 11.103 12.889zM365.194 219.97h-14.328c-5.625 0-10.653 3.99-11.453 9.558-.998 6.937 4.358 12.889 11.103 12.889h14.328c5.625 0 10.653-3.99 11.453-9.558.998-6.939-4.358-12.889-11.103-12.889zM411.925 219.97H400.49c-5.625 0-10.653 3.99-11.453 9.558-.998 6.937 4.358 12.889 11.103 12.889h11.434c5.625 0 10.653-3.99 11.453-9.558 1-6.939-4.356-12.889-11.102-12.889zM326.791 276.086c0-6.198-5.025-11.223-11.223-11.223h-11.785c-6.199 0-11.223 5.026-11.223 11.223 0 6.198 5.025 11.223 11.223 11.223h11.785c6.199.001 11.223-5.025 11.223-11.223zM365.194 264.863h-14.678c-6.199 0-11.223 5.026-11.223 11.223 0 6.198 5.025 11.223 11.223 11.223h14.678c6.199 0 11.223-5.026 11.223-11.223.001-6.197-5.024-11.223-11.223-11.223zM411.925 264.863H400.14c-6.199 0-11.223 5.026-11.223 11.223 0 6.198 5.025 11.223 11.223 11.223h11.785c6.199 0 11.223-5.026 11.223-11.223 0-6.197-5.025-11.223-11.223-11.223zM387.982 309.757h-60.256c-6.199 0-11.223 5.026-11.223 11.223 0 6.198 5.025 11.223 11.223 11.223h60.256c6.199 0 11.223-5.026 11.223-11.223 0-6.198-5.024-11.223-11.223-11.223z"/><path style="fill:#231f20" d="M500.777 22.68h-53.136v-2.245c0-6.198-5.025-11.223-11.223-11.223L11.223 8.994C5.025 8.994 0 14.02 0 20.218v56.117c0 6.199 5.025 11.223 11.223 11.223h5.788c-1.136 17.712 6.154 38.889 22.045 64.207l.003.004c21.732 34.634 56.781 72.486 84.926 102.884-.002 1.012-.003 1.681-.007 2.694a.142.142 0 0 0-.012.013C74.461 310.829 14.073 376.066 17.047 424.442h-5.824C5.025 424.442 0 429.467 0 435.666v56.117c0 6.199 5.025 11.223 11.223 11.223h308.642c6.199 0 11.223-5.025 11.223-11.223v-45.111h169.688c6.199 0 11.223-5.025 11.223-11.223V33.904c.001-6.198-5.024-11.224-11.222-11.224zM291.556 424.439H240.41l-64.088-77.525v-51.248l15.552-21.733c25.241 27.26 53.591 57.999 73.953 87.354 18.781 27.078 27.404 48.266 25.729 63.152zm-84.493-167.143-.012-.013-.006-2.567c13.04-14.08 27.562-29.76 41.557-45.98v94.474c-13.65-15.794-28-31.293-41.539-45.914zm-41.519 111.811 45.742 55.333h-91.485l45.743-55.333zm105.504-38.615V181.444c7.747-9.99 14.891-19.962 20.987-29.682l.004-.007c15.16-24.145 22.49-44.529 22.143-61.735H444.66v289.31H302.724c-7.737-15.8-18.861-32.297-31.676-48.838zM425.194 67.574h-94.105V31.659h94.105v35.915zM22.447 31.441h286.195v33.67H22.447v-33.67zm32.957 104.055.003-.008C43.516 115.59 38.201 99.524 39.536 87.559h252.016c1.341 11.969-3.97 28.029-15.86 47.917l.003.008c-11.473 2.338-18.871 7.751-24.972 12.226-7.164 5.256-12.34 9.052-23.967 9.052s-16.805-3.796-23.969-9.048c-8.14-5.969-18.27-13.398-37.255-13.398-18.971 0-29.097 7.428-37.232 13.396-7.164 5.255-12.339 9.05-23.969 9.05-11.631 0-16.807-3.796-23.971-9.048-6.097-4.472-13.491-9.88-24.956-12.218zm28.795 40.294c5.435 2.043 11.964 3.419 20.132 3.419 18.98 0 29.108-7.429 37.246-13.398 7.16-5.253 12.334-9.048 23.955-9.048 11.636 0 16.815 3.797 23.982 9.052 8.138 5.967 18.266 13.395 37.242 13.395 8.177 0 14.713-1.379 20.153-3.428-17.896 22.182-38.471 44.398-56.244 63.588-2.84 3.065-25.121 32.787-25.121 32.787s-22.304-29.746-25.155-32.826c-17.753-19.175-38.308-41.378-56.19-63.541zm-18.96 185.53c20.363-29.365 48.727-60.118 73.972-87.386l14.663 20.49v53.42c0 .047.007.093.007.14L90.677 424.44H39.531c-1.675-14.881 6.942-36.058 25.708-63.12zm243.403 119.239H22.447v-33.67h286.195v33.67zm180.911-56.334h-175.5c.412-7.148-.542-14.659-2.649-22.447h144.479c6.199 0 11.223-5.025 11.223-11.223V78.797c0-6.199-5.025-11.223-11.223-11.223h-8.242V45.127h41.912v379.098z"/></svg>