<svg id="Layer_1" data-name="Layer 1" xmlns="http://www.w3.org/2000/svg" viewBox="0 0 511.76 511.76" height="48" width="48"><defs><linearGradient id="linear-gradient" x1="183" y1="316.27" x2="487.56" y2="316.27" gradientTransform="matrix(1 0 0 -1 -.24 513.66)" gradientUnits="userSpaceOnUse"><stop offset="0" stop-color="#21d789"/><stop offset="1" stop-color="#07c3f2"/></linearGradient><linearGradient id="linear-gradient-2" x1="-179.38" y1="81.82" x2="447.74" y2="544.76" gradientTransform="matrix(1 0 0 -1 -.24 513.66)" gradientUnits="userSpaceOnUse"><stop offset=".01" stop-color="#fcf84a"/><stop offset=".11" stop-color="#a7eb62"/><stop offset=".21" stop-color="#5fe077"/><stop offset=".27" stop-color="#32da84"/><stop offset=".31" stop-color="#21d789"/><stop offset=".58" stop-color="#21d789"/><stop offset=".6" stop-color="#21d789"/><stop offset=".69" stop-color="#20d68c"/><stop offset=".76" stop-color="#1ed497"/><stop offset=".83" stop-color="#19d1a9"/><stop offset=".9" stop-color="#13ccc2"/><stop offset=".97" stop-color="#0bc6e1"/><stop offset="1" stop-color="#07c3f2"/></linearGradient><linearGradient id="linear-gradient-3" x1="68.48" y1="-54.07" x2="173.08" y2="274.15" gradientTransform="matrix(1 0 0 -1 -.24 513.66)" gradientUnits="userSpaceOnUse"><stop offset="0" stop-color="#21d789"/><stop offset=".16" stop-color="#24d788"/><stop offset=".3" stop-color="#2fd886"/><stop offset=".44" stop-color="#41da82"/><stop offset=".56" stop-color="#5adc7d"/><stop offset=".69" stop-color="#7ae077"/><stop offset=".81" stop-color="#a1e36e"/><stop offset=".93" stop-color="#cfe865"/><stop offset="1" stop-color="#f1eb5e"/></linearGradient><linearGradient id="linear-gradient-4" x1="206.74" y1="231.45" x2="434.35" y2="537.48" gradientTransform="matrix(1 0 0 -1 -.24 513.66)" gradientUnits="userSpaceOnUse"><stop offset="0" stop-color="#21d789"/><stop offset=".06" stop-color="#24d788"/><stop offset=".11" stop-color="#2fd886"/><stop offset=".16" stop-color="#41da82"/><stop offset=".21" stop-color="#5add7d"/><stop offset=".25" stop-color="#79e077"/><stop offset=".26" stop-color="#7ce076"/><stop offset=".5" stop-color="#8ce173"/><stop offset=".92" stop-color="#b2e56b"/></linearGradient><linearGradient id="linear-gradient-5" x1="555.06" y1="192.34" x2="96.43" y2="196.59" gradientTransform="matrix(1 0 0 -1 -.24 513.66)" gradientUnits="userSpaceOnUse"><stop offset=".39" stop-color="#fcf84a"/><stop offset=".54" stop-color="#ecf451"/><stop offset=".83" stop-color="#c2e964"/><stop offset=".92" stop-color="#b2e56b"/></linearGradient><style>.cls-6{fill:#fff}</style></defs><path style="fill:url(#linear-gradient)" d="m358.96 80.42 149.15 125.02-53.37 108.93-90.66-24.86h-77.49l72.37-209.09z"/><path style="fill:url(#linear-gradient-2)" d="m208.36 161.57-29.24 152.8-2.93 52.64-72.38 31.43L0 409.41 31.44 78.23 218.6 0l115.51 76.03-125.75 85.54z"/><path style="fill:url(#linear-gradient-3)" d="m208.36 161.57 13.89 295.36-46.79 54.83L0 409.41l144.03-214.94 64.33-32.9z"/><path style="fill:url(#linear-gradient-4)" d="M401.37 139.64H223.71L380.9 0l20.47 139.64z"/><path style="fill:url(#linear-gradient-5)" d="m511.76 457.66-156.45 53.37-207.63-58.49 60.68-290.97 24.13-21.93 126.47-11.7-11.69 127.21 100.89-38.75 63.6 241.26z"/><path d="M97.97 97.97H413.8V413.8H97.97z"/><path class="cls-6" d="M127.94 354.58h118.44v19.74H127.94z"/><path class="cls-6" d="M126.72 140h53.37c31.43 0 50.44 18.27 50.44 45.32v.68c0 30-23.39 46.05-52.64 46.05H156v38.75h-28.55V140Zm51.9 65.8c14.62 0 22.67-8.78 22.67-19.74v-.74c0-13.15-8.78-19.73-23.4-19.73H156v40.21ZM242.23 205.78c0-37.29 27.78-68 68-68 24.86 0 39.48 8.05 51.91 20.47l-18.28 21.21c-10.24-9.51-20.47-14.63-33.63-14.63-21.93 0-38 18.28-38 40.95V205c0 22.67 15.36 41 38 41 14.62 0 24.13-5.85 34.36-15.36l18.28 18.28c-13.16 14.62-28.51 23.39-53.37 23.39-38.75.74-67.26-29.24-67.26-66.52" transform="translate(-.24 -.34)"/></svg>